<svg width="35" height="35" viewBox="0 0 35 35" fill="none" xmlns="http://www.w3.org/2000/svg">
<path d="M17.4979 0L0 17.4979L17.4979 34.9958L34.9958 17.4979L17.4979 0ZM3.57032 17.4979L17.4979 3.57032L31.4255 17.4979L17.4979 31.4255L3.57032 17.4979Z" fill="#1A1A1A"/>
<path d="M17.4978 6.96167C13.4281 6.96167 9.72461 11.9843 9.72461 17.4979C9.72461 23.0115 13.4281 28.0341 17.4978 28.0341C21.5674 28.0341 25.2709 23.0115 25.2709 17.4979C25.2709 11.9843 21.5674 6.96167 17.4978 6.96167ZM12.2546 17.4979C12.2546 15.076 13.1909 12.6833 14.51 11.152C14.3852 11.7055 14.3186 12.2755 14.3186 12.8581C14.3186 14.947 15.1342 16.9111 16.6073 18.3884C18.5381 20.3192 18.6629 23.3777 16.9859 25.4541C14.5225 24.9922 12.2546 21.2804 12.2546 17.4979ZM20.4814 23.8521C21.0473 21.322 20.3565 18.5673 18.3924 16.6032C16.4616 14.6724 16.3368 11.6139 18.0138 9.53746C20.473 10.0035 22.7451 13.7153 22.7451 17.4979C22.7451 19.928 21.8046 22.3249 20.4814 23.8521Z" fill="#1A1A1A"/>
</svg>
